<?xml version="1.0" encoding="iso-8859-1"?>
<!-- Generator: Adobe Illustrator 19.0.0, SVG Export Plug-In . SVG Version: 6.00 Build 0)  -->
<svg version="1.1" id="Capa_1" xmlns="http://www.w3.org/2000/svg" xmlns:xlink="http://www.w3.org/1999/xlink" x="0px" y="0px"
	 viewBox="0 0 512 512" style="enable-background:new 0 0 512 512;" xml:space="preserve">
<path style="fill:#A5BFCE;" d="M426.667,238.933H76.8c-4.71,0-8.533-3.814-8.533-8.533s3.823-8.533,8.533-8.533h349.867
	c37.641,0,68.267-30.626,68.267-68.267s-30.626-68.267-68.267-68.267S358.4,115.959,358.4,153.6c0,4.719-3.823,8.533-8.533,8.533
	c-4.71,0-8.533-3.814-8.533-8.533c0-47.053,38.281-85.333,85.333-85.333S512,106.547,512,153.6S473.719,238.933,426.667,238.933z"/>
<path style="fill:#C6E2F7;" d="M426.667,443.733c-47.053,0-85.333-38.281-85.333-85.333c0-4.719,3.823-8.533,8.533-8.533
	c4.71,0,8.533,3.814,8.533,8.533c0,37.641,30.626,68.267,68.267,68.267s68.267-30.626,68.267-68.267s-30.626-68.267-68.267-68.267
	H110.933c-4.71,0-8.533-3.814-8.533-8.533s3.823-8.533,8.533-8.533h315.733c47.053,0,85.333,38.281,85.333,85.333
	S473.719,443.733,426.667,443.733z"/>
<g>
	<path style="fill:#A5BFCE;" d="M59.733,290.133h-51.2c-4.71,0-8.533-3.814-8.533-8.533s3.823-8.533,8.533-8.533h51.2
		c4.71,0,8.533,3.814,8.533,8.533S64.444,290.133,59.733,290.133z"/>
	<path style="fill:#A5BFCE;" d="M51.2,179.2H8.533c-4.71,0-8.533-3.814-8.533-8.533c0-4.719,3.823-8.533,8.533-8.533H51.2
		c4.71,0,8.533,3.814,8.533,8.533C59.733,175.386,55.91,179.2,51.2,179.2z"/>
	<path style="fill:#A5BFCE;" d="M247.467,452.267c-32.939,0-59.733-26.803-59.733-59.733c0-4.719,3.823-8.533,8.533-8.533
		s8.533,3.814,8.533,8.533c0,23.526,19.14,42.667,42.667,42.667s42.667-19.14,42.667-42.667s-19.14-42.667-42.667-42.667h-179.2
		c-4.71,0-8.533-3.814-8.533-8.533c0-4.719,3.823-8.533,8.533-8.533h179.2c32.939,0,59.733,26.803,59.733,59.733
		S280.405,452.267,247.467,452.267z"/>
</g>
<path style="fill:#C6E2F7;" d="M247.467,179.2H102.4c-4.71,0-8.533-3.814-8.533-8.533c0-4.719,3.823-8.533,8.533-8.533h145.067
	c23.526,0,42.667-19.14,42.667-42.667S270.993,76.8,247.467,76.8S204.8,95.94,204.8,119.467c0,4.719-3.823,8.533-8.533,8.533
	s-8.533-3.814-8.533-8.533c0-32.93,26.795-59.733,59.733-59.733S307.2,86.537,307.2,119.467S280.405,179.2,247.467,179.2z"/>
<g>
</g>
<g>
</g>
<g>
</g>
<g>
</g>
<g>
</g>
<g>
</g>
<g>
</g>
<g>
</g>
<g>
</g>
<g>
</g>
<g>
</g>
<g>
</g>
<g>
</g>
<g>
</g>
<g>
</g>
</svg>
